<?xml version="1.0" encoding="UTF-8" standalone="no"?>
<!-- Created with Inkscape (http://www.inkscape.org/) -->

<svg
   xmlns:dc="http://purl.org/dc/elements/1.1/"
   xmlns:cc="http://creativecommons.org/ns#"
   xmlns:rdf="http://www.w3.org/1999/02/22-rdf-syntax-ns#"
   xmlns:svg="http://www.w3.org/2000/svg"
   xmlns="http://www.w3.org/2000/svg"
   xmlns:sodipodi="http://sodipodi.sourceforge.net/DTD/sodipodi-0.dtd"
   xmlns:inkscape="http://www.inkscape.org/namespaces/inkscape"
   width="234.71976mm"
   height="102.6262mm"
   viewBox="0 0 234.71976 102.6262"
   version="1.1"
   id="svg4672"
   inkscape:version="0.92.4 (f8dce91, 2019-08-02)"
   sodipodi:docname="frame.svg">
  <defs
     id="defs4666">
    <inkscape:perspective
       sodipodi:type="inkscape:persp3d"
       inkscape:vp_x="1.1339286 : 100.875 : 1"
       inkscape:vp_y="0 : 1000 : 0"
       inkscape:vp_z="211.13395 : 100.875 : 1"
       inkscape:persp3d-origin="106.13393 : 51.374999 : 1"
       id="perspective4678" />
  </defs>
  <sodipodi:namedview
     id="base"
     pagecolor="#ffffff"
     bordercolor="#666666"
     borderopacity="1.0"
     inkscape:pageopacity="0.0"
     inkscape:pageshadow="2"
     inkscape:zoom="0.7"
     inkscape:cx="-20.694098"
     inkscape:cy="22.130435"
     inkscape:document-units="mm"
     inkscape:current-layer="layer1"
     showgrid="false"
     fit-margin-top="0"
     fit-margin-left="0"
     fit-margin-right="0"
     fit-margin-bottom="0"
     inkscape:window-width="1853"
     inkscape:window-height="1025"
     inkscape:window-x="67"
     inkscape:window-y="27"
     inkscape:window-maximized="1" />
  <metadata
     id="metadata4669">
    <rdf:RDF>
      <cc:Work
         rdf:about="">
        <dc:format>image/svg+xml</dc:format>
        <dc:type
           rdf:resource="http://purl.org/dc/dcmitype/StillImage" />
        <dc:title></dc:title>
      </cc:Work>
    </rdf:RDF>
  </metadata>
  <g
     inkscape:label="Layer 1"
     inkscape:groupmode="layer"
     id="layer1"
     transform="translate(-28.63214,-41.765469)">
    <path
       style="fill:none;stroke:#ff0101;stroke-width:1.70000005;stroke-miterlimit:4;stroke-dasharray:none;stroke-opacity:1"
       d="M 80.886902,86.089287 A 25.702381,25.702381 0 0 1 55.184521,111.79167 25.702381,25.702381 0 0 1 29.48214,86.089287 25.702381,25.702381 0 0 1 55.184521,60.386906 25.702381,25.702381 0 0 1 80.886902,86.089287 Z"
       id="path4674"
       inkscape:connector-curvature="0" />
    <path
       style="fill:none;stroke:#ff0101;stroke-width:1.53529143;stroke-miterlimit:4;stroke-dasharray:none;stroke-opacity:1"
       d="m 55.85812,95.834312 h 47.78971 V 143.62402 H 55.85812 Z"
       id="rect4676"
       inkscape:connector-curvature="0" />
    <path
       style="fill:none;stroke:#ff0101;stroke-width:1.70000005;stroke-miterlimit:4;stroke-dasharray:none;stroke-opacity:1"
       inkscape:transform-center-x="0.36034872"
       inkscape:transform-center-y="1.7820303"
       d="m 81.082424,67.829653 11.121354,-9.759245 -1.734566,-14.694172 12.718278,7.561264 13.43898,-6.19042 -3.26102,14.432364 10.04031,10.868282 -14.73371,1.358427 -7.23372,12.907387 -5.844908,-13.592809 z"
       id="path4708"
       inkscape:connector-curvature="0" />
    <g
       aria-label="This is just a test This is just a test "
       transform="matrix(0.44782759,0,0,0.44782759,-80.877083,-58.458239)"
       style="font-style:normal;font-weight:normal;font-size:40px;line-height:1.25;font-family:sans-serif;letter-spacing:0px;word-spacing:0px;fill:none;fill-opacity:1;stroke:#ff0000;stroke-opacity:1"
       id="flowRoot5255">
      <path
         d="m 429.88281,314.46484 h 24.66797 v 3.32032 H 444.19922 V 343.625 h -3.96485 v -25.83984 h -10.35156 z"
         id="path5270"
         inkscape:connector-curvature="0"
         style="fill:none;stroke:#ff0000;stroke-opacity:1" />
      <path
         d="M 476.40625,330.42187 V 343.625 h -3.59375 v -13.08594 q 0,-3.10547 -1.21094,-4.64844 -1.21094,-1.54296 -3.63281,-1.54296 -2.91016,0 -4.58984,1.85546 -1.67969,1.85547 -1.67969,5.0586 V 343.625 h -3.61328 v -30.39063 h 3.61328 v 11.91407 q 1.28906,-1.97266 3.02734,-2.94922 1.75781,-0.97656 4.04297,-0.97656 3.76953,0 5.70313,2.34375 1.93359,2.32421 1.93359,6.85546 z"
         id="path5272"
         inkscape:connector-curvature="0"
         style="fill:none;stroke:#ff0000;stroke-opacity:1" />
      <path
         d="m 483.61328,321.75 h 3.59375 v 21.875 h -3.59375 z m 0,-8.51563 h 3.59375 v 4.55079 h -3.59375 z"
         id="path5274"
         inkscape:connector-curvature="0"
         style="fill:none;stroke:#ff0000;stroke-opacity:1" />
      <path
         d="m 508.65234,322.39453 v 3.39844 q -1.52343,-0.78125 -3.16406,-1.17188 -1.64062,-0.39062 -3.39844,-0.39062 -2.67578,0 -4.02343,0.82031 -1.32813,0.82031 -1.32813,2.46094 0,1.25 0.95703,1.97265 0.95703,0.70313 3.84766,1.34766 l 1.23047,0.27344 q 3.82812,0.82031 5.42968,2.32422 1.6211,1.48437 1.6211,4.16015 0,3.04688 -2.42188,4.82422 -2.40234,1.77735 -6.62109,1.77735 -1.75781,0 -3.67188,-0.35157 -1.89453,-0.33203 -4.0039,-1.01562 v -3.71094 q 1.99219,1.03516 3.92578,1.5625 1.93359,0.50781 3.82812,0.50781 2.53907,0 3.90625,-0.85937 1.36719,-0.87891 1.36719,-2.46094 0,-1.46484 -0.99609,-2.24609 -0.97656,-0.78125 -4.31641,-1.50391 l -1.25,-0.29297 q -3.33984,-0.70312 -4.82422,-2.14844 -1.48437,-1.46484 -1.48437,-4.0039 0,-3.08594 2.1875,-4.76563 2.1875,-1.67968 6.21094,-1.67968 1.99218,0 3.75,0.29296 1.75781,0.29297 3.24218,0.87891 z"
         id="path5276"
         inkscape:connector-curvature="0"
         style="fill:none;stroke:#ff0000;stroke-opacity:1" />
      <path
         d="m 528.30078,321.75 h 3.59375 v 21.875 h -3.59375 z m 0,-8.51563 h 3.59375 v 4.55079 h -3.59375 z"
         id="path5278"
         inkscape:connector-curvature="0"
         style="fill:none;stroke:#ff0000;stroke-opacity:1" />
      <path
         d="m 553.33984,322.39453 v 3.39844 q -1.52343,-0.78125 -3.16406,-1.17188 -1.64062,-0.39062 -3.39844,-0.39062 -2.67578,0 -4.02343,0.82031 -1.32813,0.82031 -1.32813,2.46094 0,1.25 0.95703,1.97265 0.95703,0.70313 3.84766,1.34766 l 1.23047,0.27344 q 3.82812,0.82031 5.42968,2.32422 1.6211,1.48437 1.6211,4.16015 0,3.04688 -2.42188,4.82422 -2.40234,1.77735 -6.62109,1.77735 -1.75781,0 -3.67188,-0.35157 -1.89453,-0.33203 -4.0039,-1.01562 v -3.71094 q 1.99219,1.03516 3.92578,1.5625 1.93359,0.50781 3.82812,0.50781 2.53907,0 3.90625,-0.85937 1.36719,-0.87891 1.36719,-2.46094 0,-1.46484 -0.99609,-2.24609 -0.97656,-0.78125 -4.31641,-1.50391 l -1.25,-0.29297 q -3.33984,-0.70312 -4.82422,-2.14844 -1.48437,-1.46484 -1.48437,-4.0039 0,-3.08594 2.1875,-4.76563 2.1875,-1.67968 6.21094,-1.67968 1.99218,0 3.75,0.29296 1.75781,0.29297 3.24218,0.87891 z"
         id="path5280"
         inkscape:connector-curvature="0"
         style="fill:none;stroke:#ff0000;stroke-opacity:1" />
      <path
         d="m 572.98828,321.75 h 3.59375 v 22.26562 q 0,4.17969 -1.60156,6.05469 -1.58203,1.875 -5.11719,1.875 h -1.36719 v -3.04687 h 0.95703 q 2.05079,0 2.79297,-0.95703 0.74219,-0.9375 0.74219,-3.92579 z m 0,-8.51563 h 3.59375 v 4.55079 h -3.59375 z"
         id="path5282"
         inkscape:connector-curvature="0"
         style="fill:none;stroke:#ff0000;stroke-opacity:1" />
      <path
         d="M 583.71094,334.99219 V 321.75 h 3.59375 v 13.10547 q 0,3.10547 1.21093,4.66797 1.21094,1.54297 3.63282,1.54297 2.91015,0 4.58984,-1.85547 1.69922,-1.85547 1.69922,-5.0586 V 321.75 h 3.59375 v 21.875 h -3.59375 v -3.35938 q -1.30859,1.99219 -3.04688,2.96875 -1.71875,0.95704 -4.0039,0.95704 -3.76953,0 -5.72266,-2.34375 -1.95312,-2.34375 -1.95312,-6.85547 z m 9.04297,-13.76953 z"
         id="path5284"
         inkscape:connector-curvature="0"
         style="fill:none;stroke:#ff0000;stroke-opacity:1" />
      <path
         d="m 623.41797,322.39453 v 3.39844 q -1.52344,-0.78125 -3.16406,-1.17188 -1.64063,-0.39062 -3.39844,-0.39062 -2.67578,0 -4.02344,0.82031 -1.32812,0.82031 -1.32812,2.46094 0,1.25 0.95703,1.97265 0.95703,0.70313 3.84765,1.34766 l 1.23047,0.27344 q 3.82813,0.82031 5.42969,2.32422 1.62109,1.48437 1.62109,4.16015 0,3.04688 -2.42187,4.82422 -2.40235,1.77735 -6.6211,1.77735 -1.75781,0 -3.67187,-0.35157 -1.89453,-0.33203 -4.00391,-1.01562 v -3.71094 q 1.99219,1.03516 3.92578,1.5625 1.9336,0.50781 3.82813,0.50781 2.53906,0 3.90625,-0.85937 1.36719,-0.87891 1.36719,-2.46094 0,-1.46484 -0.9961,-2.24609 -0.97656,-0.78125 -4.3164,-1.50391 l -1.25,-0.29297 q -3.33985,-0.70312 -4.82422,-2.14844 -1.48438,-1.46484 -1.48438,-4.0039 0,-3.08594 2.1875,-4.76563 2.1875,-1.67968 6.21094,-1.67968 1.99219,0 3.75,0.29296 1.75781,0.29297 3.24219,0.87891 z"
         id="path5286"
         inkscape:connector-curvature="0"
         style="fill:none;stroke:#ff0000;stroke-opacity:1" />
      <path
         d="M 633.88672,315.53906 V 321.75 h 7.40234 v 2.79297 h -7.40234 v 11.875 q 0,2.67578 0.72265,3.4375 0.74219,0.76172 2.98829,0.76172 h 3.6914 v 3.00781 h -3.6914 q -4.16016,0 -5.74219,-1.54297 -1.58203,-1.5625 -1.58203,-5.66406 v -11.875 h -2.63672 V 321.75 h 2.63672 v -6.21094 z"
         id="path5288"
         inkscape:connector-curvature="0"
         style="fill:none;stroke:#ff0000;stroke-opacity:1" />
      <path
         d="m 668.71094,332.62891 q -4.35547,0 -6.03516,0.99609 -1.67969,0.99609 -1.67969,3.39844 0,1.91406 1.25,3.04687 1.26953,1.11328 3.4375,1.11328 2.98828,0 4.78516,-2.10937 1.81641,-2.12891 1.81641,-5.64453 v -0.80078 z m 7.16797,-1.48438 V 343.625 h -3.59375 v -3.32031 q -1.23047,1.99218 -3.06641,2.94922 -1.83594,0.9375 -4.49219,0.9375 -3.35937,0 -5.35156,-1.875 -1.97266,-1.89454 -1.97266,-5.0586 0,-3.6914 2.46094,-5.5664 2.48047,-1.875 7.38281,-1.875 h 5.03907 v -0.35157 q 0,-2.48047 -1.64063,-3.82812 -1.62109,-1.36719 -4.57031,-1.36719 -1.875,0 -3.65235,0.44922 -1.77734,0.44922 -3.41796,1.34766 v -3.32032 q 1.97265,-0.76172 3.82812,-1.13281 1.85547,-0.39062 3.61328,-0.39062 4.7461,0 7.08985,2.46093 2.34375,2.46094 2.34375,7.46094 z"
         id="path5290"
         inkscape:connector-curvature="0"
         style="fill:none;stroke:#ff0000;stroke-opacity:1" />
      <path
         d="M 699.58984,315.53906 V 321.75 h 7.40235 v 2.79297 h -7.40235 v 11.875 q 0,2.67578 0.72266,3.4375 0.74219,0.76172 2.98828,0.76172 h 3.69141 v 3.00781 h -3.69141 q -4.16016,0 -5.74219,-1.54297 -1.58203,-1.5625 -1.58203,-5.66406 v -11.875 h -2.63672 V 321.75 h 2.63672 v -6.21094 z"
         id="path5292"
         inkscape:connector-curvature="0"
         style="fill:none;stroke:#ff0000;stroke-opacity:1" />
      <path
         d="m 730.44922,331.78906 v 1.75781 h -16.52344 q 0.23438,3.71094 2.22656,5.66407 2.01172,1.93359 5.58594,1.93359 2.07031,0 4.00391,-0.50781 1.95312,-0.50781 3.86718,-1.52344 v 3.39844 q -1.93359,0.82031 -3.96484,1.25 -2.03125,0.42969 -4.12109,0.42969 -5.23438,0 -8.30078,-3.04688 -3.04688,-3.04687 -3.04688,-8.24219 0,-5.37109 2.89063,-8.51562 2.91015,-3.16406 7.83203,-3.16406 4.41406,0 6.97265,2.85156 2.57813,2.83203 2.57813,7.71484 z m -3.59375,-1.05469 q -0.0391,-2.94921 -1.66016,-4.70703 -1.60156,-1.75781 -4.25781,-1.75781 -3.00781,0 -4.82422,1.69922 -1.79687,1.69922 -2.07031,4.78516 z"
         id="path5294"
         inkscape:connector-curvature="0"
         style="fill:none;stroke:#ff0000;stroke-opacity:1" />
      <path
         d="m 750.29297,322.39453 v 3.39844 q -1.52344,-0.78125 -3.16406,-1.17188 -1.64063,-0.39062 -3.39844,-0.39062 -2.67578,0 -4.02344,0.82031 -1.32812,0.82031 -1.32812,2.46094 0,1.25 0.95703,1.97265 0.95703,0.70313 3.84765,1.34766 l 1.23047,0.27344 q 3.82813,0.82031 5.42969,2.32422 1.62109,1.48437 1.62109,4.16015 0,3.04688 -2.42187,4.82422 -2.40235,1.77735 -6.6211,1.77735 -1.75781,0 -3.67187,-0.35157 -1.89453,-0.33203 -4.00391,-1.01562 v -3.71094 q 1.99219,1.03516 3.92578,1.5625 1.9336,0.50781 3.82813,0.50781 2.53906,0 3.90625,-0.85937 1.36719,-0.87891 1.36719,-2.46094 0,-1.46484 -0.9961,-2.24609 -0.97656,-0.78125 -4.3164,-1.50391 l -1.25,-0.29297 q -3.33985,-0.70312 -4.82422,-2.14844 -1.48438,-1.46484 -1.48438,-4.0039 0,-3.08594 2.1875,-4.76563 2.1875,-1.67968 6.21094,-1.67968 1.99219,0 3.75,0.29296 1.75781,0.29297 3.24219,0.87891 z"
         id="path5296"
         inkscape:connector-curvature="0"
         style="fill:none;stroke:#ff0000;stroke-opacity:1" />
      <path
         d="M 760.76172,315.53906 V 321.75 h 7.40234 v 2.79297 h -7.40234 v 11.875 q 0,2.67578 0.72265,3.4375 0.74219,0.76172 2.98829,0.76172 h 3.6914 v 3.00781 h -3.6914 q -4.16016,0 -5.74219,-1.54297 -1.58203,-1.5625 -1.58203,-5.66406 v -11.875 h -2.63672 V 321.75 h 2.63672 v -6.21094 z"
         id="path5298"
         inkscape:connector-curvature="0"
         style="fill:none;stroke:#ff0000;stroke-opacity:1" />
      <path
         d="m 429.88281,364.46484 h 24.66797 v 3.32032 H 444.19922 V 393.625 h -3.96485 v -25.83984 h -10.35156 z"
         id="path5300"
         inkscape:connector-curvature="0"
         style="fill:none;stroke:#ff0000;stroke-opacity:1" />
      <path
         d="M 476.40625,380.42187 V 393.625 h -3.59375 v -13.08594 q 0,-3.10547 -1.21094,-4.64844 -1.21094,-1.54296 -3.63281,-1.54296 -2.91016,0 -4.58984,1.85546 -1.67969,1.85547 -1.67969,5.0586 V 393.625 h -3.61328 v -30.39063 h 3.61328 v 11.91407 q 1.28906,-1.97266 3.02734,-2.94922 1.75781,-0.97656 4.04297,-0.97656 3.76953,0 5.70313,2.34375 1.93359,2.32421 1.93359,6.85546 z"
         id="path5302"
         inkscape:connector-curvature="0"
         style="fill:none;stroke:#ff0000;stroke-opacity:1" />
      <path
         d="m 483.61328,371.75 h 3.59375 v 21.875 h -3.59375 z m 0,-8.51563 h 3.59375 v 4.55079 h -3.59375 z"
         id="path5304"
         inkscape:connector-curvature="0"
         style="fill:none;stroke:#ff0000;stroke-opacity:1" />
      <path
         d="m 508.65234,372.39453 v 3.39844 q -1.52343,-0.78125 -3.16406,-1.17188 -1.64062,-0.39062 -3.39844,-0.39062 -2.67578,0 -4.02343,0.82031 -1.32813,0.82031 -1.32813,2.46094 0,1.25 0.95703,1.97265 0.95703,0.70313 3.84766,1.34766 l 1.23047,0.27344 q 3.82812,0.82031 5.42968,2.32422 1.6211,1.48437 1.6211,4.16015 0,3.04688 -2.42188,4.82422 -2.40234,1.77735 -6.62109,1.77735 -1.75781,0 -3.67188,-0.35157 -1.89453,-0.33203 -4.0039,-1.01562 v -3.71094 q 1.99219,1.03516 3.92578,1.5625 1.93359,0.50781 3.82812,0.50781 2.53907,0 3.90625,-0.85937 1.36719,-0.87891 1.36719,-2.46094 0,-1.46484 -0.99609,-2.24609 -0.97656,-0.78125 -4.31641,-1.50391 l -1.25,-0.29297 q -3.33984,-0.70312 -4.82422,-2.14844 -1.48437,-1.46484 -1.48437,-4.0039 0,-3.08594 2.1875,-4.76563 2.1875,-1.67968 6.21094,-1.67968 1.99218,0 3.75,0.29296 1.75781,0.29297 3.24218,0.87891 z"
         id="path5306"
         inkscape:connector-curvature="0"
         style="fill:none;stroke:#ff0000;stroke-opacity:1" />
      <path
         d="m 528.30078,371.75 h 3.59375 v 21.875 h -3.59375 z m 0,-8.51563 h 3.59375 v 4.55079 h -3.59375 z"
         id="path5308"
         inkscape:connector-curvature="0"
         style="fill:none;stroke:#ff0000;stroke-opacity:1" />
      <path
         d="m 553.33984,372.39453 v 3.39844 q -1.52343,-0.78125 -3.16406,-1.17188 -1.64062,-0.39062 -3.39844,-0.39062 -2.67578,0 -4.02343,0.82031 -1.32813,0.82031 -1.32813,2.46094 0,1.25 0.95703,1.97265 0.95703,0.70313 3.84766,1.34766 l 1.23047,0.27344 q 3.82812,0.82031 5.42968,2.32422 1.6211,1.48437 1.6211,4.16015 0,3.04688 -2.42188,4.82422 -2.40234,1.77735 -6.62109,1.77735 -1.75781,0 -3.67188,-0.35157 -1.89453,-0.33203 -4.0039,-1.01562 v -3.71094 q 1.99219,1.03516 3.92578,1.5625 1.93359,0.50781 3.82812,0.50781 2.53907,0 3.90625,-0.85937 1.36719,-0.87891 1.36719,-2.46094 0,-1.46484 -0.99609,-2.24609 -0.97656,-0.78125 -4.31641,-1.50391 l -1.25,-0.29297 q -3.33984,-0.70312 -4.82422,-2.14844 -1.48437,-1.46484 -1.48437,-4.0039 0,-3.08594 2.1875,-4.76563 2.1875,-1.67968 6.21094,-1.67968 1.99218,0 3.75,0.29296 1.75781,0.29297 3.24218,0.87891 z"
         id="path5310"
         inkscape:connector-curvature="0"
         style="fill:none;stroke:#ff0000;stroke-opacity:1" />
      <path
         d="m 572.98828,371.75 h 3.59375 v 22.26562 q 0,4.17969 -1.60156,6.05469 -1.58203,1.875 -5.11719,1.875 h -1.36719 v -3.04687 h 0.95703 q 2.05079,0 2.79297,-0.95703 0.74219,-0.9375 0.74219,-3.92579 z m 0,-8.51563 h 3.59375 v 4.55079 h -3.59375 z"
         id="path5312"
         inkscape:connector-curvature="0"
         style="fill:none;stroke:#ff0000;stroke-opacity:1" />
      <path
         d="M 583.71094,384.99219 V 371.75 h 3.59375 v 13.10547 q 0,3.10547 1.21093,4.66797 1.21094,1.54297 3.63282,1.54297 2.91015,0 4.58984,-1.85547 1.69922,-1.85547 1.69922,-5.0586 V 371.75 h 3.59375 v 21.875 h -3.59375 v -3.35938 q -1.30859,1.99219 -3.04688,2.96875 -1.71875,0.95704 -4.0039,0.95704 -3.76953,0 -5.72266,-2.34375 -1.95312,-2.34375 -1.95312,-6.85547 z m 9.04297,-13.76953 z"
         id="path5314"
         inkscape:connector-curvature="0"
         style="fill:none;stroke:#ff0000;stroke-opacity:1" />
      <path
         d="m 623.41797,372.39453 v 3.39844 q -1.52344,-0.78125 -3.16406,-1.17188 -1.64063,-0.39062 -3.39844,-0.39062 -2.67578,0 -4.02344,0.82031 -1.32812,0.82031 -1.32812,2.46094 0,1.25 0.95703,1.97265 0.95703,0.70313 3.84765,1.34766 l 1.23047,0.27344 q 3.82813,0.82031 5.42969,2.32422 1.62109,1.48437 1.62109,4.16015 0,3.04688 -2.42187,4.82422 -2.40235,1.77735 -6.6211,1.77735 -1.75781,0 -3.67187,-0.35157 -1.89453,-0.33203 -4.00391,-1.01562 v -3.71094 q 1.99219,1.03516 3.92578,1.5625 1.9336,0.50781 3.82813,0.50781 2.53906,0 3.90625,-0.85937 1.36719,-0.87891 1.36719,-2.46094 0,-1.46484 -0.9961,-2.24609 -0.97656,-0.78125 -4.3164,-1.50391 l -1.25,-0.29297 q -3.33985,-0.70312 -4.82422,-2.14844 -1.48438,-1.46484 -1.48438,-4.0039 0,-3.08594 2.1875,-4.76563 2.1875,-1.67968 6.21094,-1.67968 1.99219,0 3.75,0.29296 1.75781,0.29297 3.24219,0.87891 z"
         id="path5316"
         inkscape:connector-curvature="0"
         style="fill:none;stroke:#ff0000;stroke-opacity:1" />
      <path
         d="M 633.88672,365.53906 V 371.75 h 7.40234 v 2.79297 h -7.40234 v 11.875 q 0,2.67578 0.72265,3.4375 0.74219,0.76172 2.98829,0.76172 h 3.6914 v 3.00781 h -3.6914 q -4.16016,0 -5.74219,-1.54297 -1.58203,-1.5625 -1.58203,-5.66406 v -11.875 h -2.63672 V 371.75 h 2.63672 v -6.21094 z"
         id="path5318"
         inkscape:connector-curvature="0"
         style="fill:none;stroke:#ff0000;stroke-opacity:1" />
      <path
         d="m 668.71094,382.62891 q -4.35547,0 -6.03516,0.99609 -1.67969,0.99609 -1.67969,3.39844 0,1.91406 1.25,3.04687 1.26953,1.11328 3.4375,1.11328 2.98828,0 4.78516,-2.10937 1.81641,-2.12891 1.81641,-5.64453 v -0.80078 z m 7.16797,-1.48438 V 393.625 h -3.59375 v -3.32031 q -1.23047,1.99218 -3.06641,2.94922 -1.83594,0.9375 -4.49219,0.9375 -3.35937,0 -5.35156,-1.875 -1.97266,-1.89454 -1.97266,-5.0586 0,-3.6914 2.46094,-5.5664 2.48047,-1.875 7.38281,-1.875 h 5.03907 v -0.35157 q 0,-2.48047 -1.64063,-3.82812 -1.62109,-1.36719 -4.57031,-1.36719 -1.875,0 -3.65235,0.44922 -1.77734,0.44922 -3.41796,1.34766 v -3.32032 q 1.97265,-0.76172 3.82812,-1.13281 1.85547,-0.39062 3.61328,-0.39062 4.7461,0 7.08985,2.46093 2.34375,2.46094 2.34375,7.46094 z"
         id="path5320"
         inkscape:connector-curvature="0"
         style="fill:none;stroke:#ff0000;stroke-opacity:1" />
      <path
         d="M 699.58984,365.53906 V 371.75 h 7.40235 v 2.79297 h -7.40235 v 11.875 q 0,2.67578 0.72266,3.4375 0.74219,0.76172 2.98828,0.76172 h 3.69141 v 3.00781 h -3.69141 q -4.16016,0 -5.74219,-1.54297 -1.58203,-1.5625 -1.58203,-5.66406 v -11.875 h -2.63672 V 371.75 h 2.63672 v -6.21094 z"
         id="path5322"
         inkscape:connector-curvature="0"
         style="fill:none;stroke:#ff0000;stroke-opacity:1" />
      <path
         d="m 730.44922,381.78906 v 1.75781 h -16.52344 q 0.23438,3.71094 2.22656,5.66407 2.01172,1.93359 5.58594,1.93359 2.07031,0 4.00391,-0.50781 1.95312,-0.50781 3.86718,-1.52344 v 3.39844 q -1.93359,0.82031 -3.96484,1.25 -2.03125,0.42969 -4.12109,0.42969 -5.23438,0 -8.30078,-3.04688 -3.04688,-3.04687 -3.04688,-8.24219 0,-5.37109 2.89063,-8.51562 2.91015,-3.16406 7.83203,-3.16406 4.41406,0 6.97265,2.85156 2.57813,2.83203 2.57813,7.71484 z m -3.59375,-1.05469 q -0.0391,-2.94921 -1.66016,-4.70703 -1.60156,-1.75781 -4.25781,-1.75781 -3.00781,0 -4.82422,1.69922 -1.79687,1.69922 -2.07031,4.78516 z"
         id="path5324"
         inkscape:connector-curvature="0"
         style="fill:none;stroke:#ff0000;stroke-opacity:1" />
      <path
         d="m 750.29297,372.39453 v 3.39844 q -1.52344,-0.78125 -3.16406,-1.17188 -1.64063,-0.39062 -3.39844,-0.39062 -2.67578,0 -4.02344,0.82031 -1.32812,0.82031 -1.32812,2.46094 0,1.25 0.95703,1.97265 0.95703,0.70313 3.84765,1.34766 l 1.23047,0.27344 q 3.82813,0.82031 5.42969,2.32422 1.62109,1.48437 1.62109,4.16015 0,3.04688 -2.42187,4.82422 -2.40235,1.77735 -6.6211,1.77735 -1.75781,0 -3.67187,-0.35157 -1.89453,-0.33203 -4.00391,-1.01562 v -3.71094 q 1.99219,1.03516 3.92578,1.5625 1.9336,0.50781 3.82813,0.50781 2.53906,0 3.90625,-0.85937 1.36719,-0.87891 1.36719,-2.46094 0,-1.46484 -0.9961,-2.24609 -0.97656,-0.78125 -4.3164,-1.50391 l -1.25,-0.29297 q -3.33985,-0.70312 -4.82422,-2.14844 -1.48438,-1.46484 -1.48438,-4.0039 0,-3.08594 2.1875,-4.76563 2.1875,-1.67968 6.21094,-1.67968 1.99219,0 3.75,0.29296 1.75781,0.29297 3.24219,0.87891 z"
         id="path5326"
         inkscape:connector-curvature="0"
         style="fill:none;stroke:#ff0000;stroke-opacity:1" />
      <path
         d="M 760.76172,365.53906 V 371.75 h 7.40234 v 2.79297 h -7.40234 v 11.875 q 0,2.67578 0.72265,3.4375 0.74219,0.76172 2.98829,0.76172 h 3.6914 v 3.00781 h -3.6914 q -4.16016,0 -5.74219,-1.54297 -1.58203,-1.5625 -1.58203,-5.66406 v -11.875 h -2.63672 V 371.75 h 2.63672 v -6.21094 z"
         id="path5328"
         inkscape:connector-curvature="0"
         style="fill:none;stroke:#ff0000;stroke-opacity:1" />
    </g>
  </g>
</svg>
